<svg xmlns="http://www.w3.org/2000/svg" width="21.078" height="24.262" viewBox="0 0 21.078 24.262">
  <path id="Icon_simple-tiktok" data-name="Icon simple-tiktok" d="M13.439.02C14.763,0,16.077.01,17.391,0A6.3,6.3,0,0,0,19.16,4.215a7.129,7.129,0,0,0,4.286,1.809V10.1A10.82,10.82,0,0,1,19.2,9.118a12.489,12.489,0,0,1-1.638-.94c-.01,2.952.01,5.9-.02,8.845a7.721,7.721,0,0,1-1.365,3.983A7.531,7.531,0,0,1,10.2,24.251,7.371,7.371,0,0,1,6.079,23.21a7.623,7.623,0,0,1-3.69-5.772c-.02-.505-.03-1.011-.01-1.506A7.61,7.61,0,0,1,11.2,9.179c.02,1.5-.04,2.992-.04,4.488A3.468,3.468,0,0,0,6.737,15.81,4.01,4.01,0,0,0,6.6,17.438a3.44,3.44,0,0,0,3.538,2.9,3.4,3.4,0,0,0,2.8-1.628,2.332,2.332,0,0,0,.414-1.072c.1-1.809.061-3.609.071-5.418.01-4.074-.01-8.138.02-12.2Z" transform="translate(-2.369)"/>
</svg>
