<svg xmlns="http://www.w3.org/2000/svg" width="23.355" height="22.187" viewBox="0 0 23.355 22.187">
  <path id="Icon_material-card-travel" data-name="Icon material-card-travel" d="M26.019,9.671h-3.5V7.335A2.327,2.327,0,0,0,20.181,5H13.174a2.327,2.327,0,0,0-2.335,2.335V9.671h-3.5A2.327,2.327,0,0,0,5,12.006V24.851a2.327,2.327,0,0,0,2.335,2.335H26.019a2.327,2.327,0,0,0,2.335-2.335V12.006A2.327,2.327,0,0,0,26.019,9.671ZM13.174,7.335h7.006V9.671H13.174ZM26.019,24.851H7.335V22.516H26.019Zm0-5.839H7.335V12.006h3.5v2.335h2.335V12.006h7.006v2.335h2.335V12.006h3.5Z" transform="translate(-5 -5)"/>
</svg>
