<svg xmlns="http://www.w3.org/2000/svg" width="21.228" height="21.229" viewBox="0 0 21.228 21.229">
  <path id="Icon_awesome-youtube-square" data-name="Icon awesome-youtube-square" d="M8.851,10.31l4.511,2.564L8.851,15.437ZM21.228,4.524V21.2a2.275,2.275,0,0,1-2.274,2.274H2.274A2.275,2.275,0,0,1,0,21.2V4.524A2.275,2.275,0,0,1,2.274,2.25H18.954A2.275,2.275,0,0,1,21.228,4.524Zm-1.99,8.354a22.769,22.769,0,0,0-.36-4.179,2.163,2.163,0,0,0-1.526-1.535A50.884,50.884,0,0,0,10.614,6.8a50.884,50.884,0,0,0-6.738.365A2.163,2.163,0,0,0,2.35,8.7a22.741,22.741,0,0,0-.36,4.179,22.769,22.769,0,0,0,.36,4.179,2.132,2.132,0,0,0,1.526,1.512,51.547,51.547,0,0,0,6.738.36,50.884,50.884,0,0,0,6.738-.365,2.132,2.132,0,0,0,1.526-1.512,22.7,22.7,0,0,0,.36-4.175Z" transform="translate(0 -2.25)"/>
</svg>
