<svg xmlns="http://www.w3.org/2000/svg" width="17.992" height="17.833" viewBox="0 0 17.992 17.833">
  <path id="Icon_weather-stars" data-name="Icon weather-stars" d="M10.74,19.624a2.284,2.284,0,0,0,2.177-2.27,2.267,2.267,0,0,0,2.167,2.27,2.267,2.267,0,0,0-2.167,2.27,2.157,2.157,0,0,0-.635-1.569A2.2,2.2,0,0,0,10.74,19.624ZM12.917,12.9a4.293,4.293,0,0,0,3-1.373A4.276,4.276,0,0,0,17.149,8.46a4.276,4.276,0,0,0,1.233,3.064A4.336,4.336,0,0,0,21.39,12.9a4.33,4.33,0,0,0-2.139.663,4.489,4.489,0,0,0-1.541,1.616,4.393,4.393,0,0,0-.561,2.177A4.473,4.473,0,0,0,12.917,12.9Zm3.1,10.061A3.337,3.337,0,0,0,19.2,19.624a3.338,3.338,0,0,0,3.176,3.335A3.338,3.338,0,0,0,19.2,26.294a3.217,3.217,0,0,0-.925-2.307A3.273,3.273,0,0,0,16.018,22.959Zm6.362-4.428a3.321,3.321,0,0,0,3.167-3.344,3.337,3.337,0,0,0,3.186,3.335,3.337,3.337,0,0,0-3.186,3.335,3.3,3.3,0,0,0-3.167-3.326Z" transform="translate(-10.74 -8.46)"/>
</svg>
