<svg xmlns="http://www.w3.org/2000/svg" width="21.228" height="21.229" viewBox="0 0 21.228 21.229">
  <path id="Icon_awesome-pinterest-square" data-name="Icon awesome-pinterest-square" d="M21.228,4.524V21.2a2.275,2.275,0,0,1-2.274,2.274H7.316a12.142,12.142,0,0,0,1.3-2.81c.142-.545.725-2.767.725-2.767a3.111,3.111,0,0,0,2.668,1.336c3.511,0,6.037-3.227,6.037-7.236,0-3.843-3.137-6.719-7.174-6.719-5.023,0-7.686,3.369-7.686,7.041,0,1.706.91,3.829,2.36,4.506.223.1.336.057.389-.156.038-.161.237-.952.322-1.317a.343.343,0,0,0-.081-.332,4.536,4.536,0,0,1-.867-2.654A5.037,5.037,0,0,1,10.562,7.32a4.6,4.6,0,0,1,4.862,4.734c0,3.146-1.587,5.326-3.658,5.326a1.692,1.692,0,0,1-1.725-2.1A23.514,23.514,0,0,0,11,11.4c0-2.511-3.578-2.165-3.578,1.185a4.252,4.252,0,0,0,.346,1.73c-1.488,6.293-1.711,6.373-1.4,9.126l.1.038h-4.2A2.275,2.275,0,0,1,0,21.2V4.524A2.275,2.275,0,0,1,2.274,2.25H18.954A2.275,2.275,0,0,1,21.228,4.524Z" transform="translate(0 -2.25)"/>
</svg>
